# xmcd
#
# Track frame offsets:
# 150
# 12483
# 24508
# 41846
# 55499
# 73265
# 93472
# 107343
# 130661
# 141830
#
# Disc length: 2130 seconds
#
#
# Revision: 0
# Processed by: cddbd v1.5.1PL0 Copyright (c) Steve Scherf et al.
# Submitted via: FreeRIP 2.941 
#
DISCID=8b08500a
DTITLE=Trisha Yearwood - The Sweetest Gift
DYEAR=1900
DGENRE=Country
TTITLE0=Sweet Little Jesus Boy
TTITLE1=Reindeer Boogie
TTITLE2=Take A Walk Through Bethlehem
TTITLE3=Santa Claus Is Back In Town
TTITLE4=It Wasn't His Child
TTITLE5=Away In The Manger
TTITLE6=Sweetest Gift
TTITLE7=There's A New Kid In Town
TTITLE8=Let It Snow! Let It Snow! Let It Snow!
TTITLE9=Christmas Song{Chestnuts Roasting On An Open Fire}
EXTD=
EXTT0=
EXTT1=
EXTT2=
EXTT3=
EXTT4=
EXTT5=
EXTT6=
EXTT7=
EXTT8=
EXTT9=
PLAYORDER=
